<?xml version="1.0" encoding="UTF-8"?>
<svg width="64px" height="64px" viewBox="0 0 64 64" version="1.1" xmlns="http://www.w3.org/2000/svg" xmlns:xlink="http://www.w3.org/1999/xlink">
    <title>Slice 1</title>
    <g id="页面-1" stroke="none" stroke-width="1" fill="none" fill-rule="evenodd">
        <g id="712" transform="translate(31.972500, 31.997500) scale(-1, 1) translate(-31.972500, -31.997500) translate(0.060000, 0.085000)" fill-rule="nonzero">
            <path d="M61.1899999,34.54 L48.1749999,34.54 C48.4543359,32.8011469 48.4543359,31.0288531 48.1749999,29.29 L61.1999999,29.29 C62.6497474,29.29 63.8249999,30.4652525 63.8249999,31.915 C63.8249999,33.3647475 62.6497474,34.54 61.1999999,34.54 L61.1899999,34.54 Z" id="路径" fill="#212121"></path>
            <path d="M55.9599999,48.83 L44.6749999,42.315 C45.7866475,40.9477515 46.672807,39.4117417 47.2999999,37.765 L58.5849999,44.28 C59.8414477,45.0090159 60.2690157,46.6185522 59.5399999,47.875 C58.810984,49.1314478 57.2014477,49.5590158 55.9449999,48.83 L55.9599999,48.83 Z" id="路径" fill="#BCBCBC"></path>
            <path d="M44.2799999,58.59 L37.7649999,47.305 C39.4117416,46.6778071 40.9477513,45.7916476 42.3149999,44.68 L48.8249999,55.965 C49.293911,56.7777792 49.2935902,57.7789793 48.8241583,58.5914579 C48.3547264,59.4039364 47.4875013,59.9042586 46.5491583,59.903958 C45.6108152,59.9036572 44.743911,59.4027793 44.2749999,58.59 L44.2799999,58.59 Z" id="路径" fill="#BCBCBC"></path>
            <path d="M29.2899999,61.2 L29.2899999,48.165 C31.0288529,48.444336 32.8011468,48.444336 34.5399999,48.165 L34.5399999,61.2 C34.5399999,62.6497475 33.3647474,63.825 31.9149999,63.825 C30.4652524,63.825 29.2899999,62.6497475 29.2899999,61.2 L29.2899999,61.2 Z" id="路径" fill="#BCBCBC"></path>
            <path d="M14.9899999,55.965 L21.5099999,44.68 C22.8772484,45.7916476 24.4132582,46.6778071 26.0599999,47.305 L19.5399999,58.59 C18.8151262,59.8464478 17.2089477,60.2773737 15.9524999,59.5525 C14.6960521,58.8276263 14.2651262,57.2214478 14.9899999,55.965 Z" id="路径" fill="#BCBCBC"></path>
            <path d="M5.23999989,44.285 L16.5199999,37.765 C17.1471928,39.4117417 18.0333523,40.9477515 19.1449999,42.315 L7.87999989,48.83 C7.06722067,49.2989111 6.06602059,49.2985903 5.25354205,48.8291584 C4.4410635,48.3597265 3.94074131,47.4925014 3.94104188,46.5541584 C3.94134273,45.6158153 4.44222064,44.7489111 5.25499989,44.28 L5.23999989,44.285 Z" id="路径" fill="#BCBCBC"></path>
            <path d="M2.62499989,29.29 L15.6549999,29.29 C15.3756639,31.0288531 15.3756639,32.8011469 15.6549999,34.54 L2.62499989,34.54 C1.17525246,34.54 -8.8817842e-16,33.3647474 -8.8817842e-16,31.915 C-8.8817842e-16,30.4652526 1.17525246,29.29 2.62499989,29.29 L2.62499989,29.29 Z" id="路径" fill="#A6A6A6"></path>
            <path d="M7.86499989,15 L19.1399999,21.515 C18.0301195,22.8825912 17.1456587,24.4185823 16.5199999,26.065 L5.23999989,19.54 C3.98355208,18.8151263 3.55262616,17.2089478 4.27749989,15.9525 C5.00237362,14.6960522 6.60855208,14.2651263 7.86499989,14.99 L7.86499989,15 Z" id="路径" fill="#909090"></path>
            <path d="M19.5399999,5.24 L26.0549999,16.525 C24.4082582,17.1521929 22.8722484,18.0383524 21.5049999,19.15 L15.0049999,7.865 C14.2801262,6.60855219 14.7110521,5.00237373 15.9674999,4.2775 C17.2239477,3.55262627 18.8301262,3.98355219 19.5549999,5.24 L19.5399999,5.24 Z" id="路径" fill="#7A7A7A"></path>
            <path d="M34.5399999,2.63 L34.5399999,15.665 C32.8011468,15.385664 31.0288529,15.385664 29.2899999,15.665 L29.2899999,2.625 C29.2899999,1.17525253 30.4652524,-8.8817842e-16 31.9149999,-8.8817842e-16 C33.3647474,-8.8817842e-16 34.5399999,1.17525253 34.5399999,2.625 L34.5399999,2.63 Z" id="路径" fill="#636363"></path>
            <path d="M48.8249999,7.865 L42.3149999,19.15 C40.9477513,18.0383524 39.4117416,17.1521929 37.7649999,16.525 L44.2799999,5.24 C44.748911,4.42722075 45.6158152,3.92634283 46.5541582,3.92604199 C47.4925013,3.92574142 48.3597264,4.4260636 48.8291583,5.23854215 C49.2985902,6.0510207 49.298911,7.05222078 48.8299999,7.865 L48.8249999,7.865 Z" id="路径" fill="#4D4D4D"></path>
            <path d="M58.5899999,19.545 L47.2899999,26.065 C46.662807,24.4182583 45.7766475,22.8822485 44.6649999,21.515 L55.9499999,15 C57.2064477,14.2751263 58.8126261,14.7060523 59.5374998,15.9625 C60.2623735,17.2189478 59.8314476,18.8251262 58.5749999,19.55 L58.5899999,19.545 Z" id="路径" fill="#373737"></path>
        </g>
    </g>
</svg>